<?xml version="1.0" standalone="no"?>
<!DOCTYPE svg PUBLIC "-//W3C//DTD SVG 20010904//EN"
 "http://www.w3.org/TR/2001/REC-SVG-20010904/DTD/svg10.dtd">
<svg version="1.0" xmlns="http://www.w3.org/2000/svg"
 width="776.000000pt" height="776.000000pt" viewBox="0 0 776.000000 776.000000"
 preserveAspectRatio="xMidYMid meet">
<metadata>
Created by potrace 1.11, written by Peter Selinger 2001-2013
</metadata>
<g transform="translate(0.000000,776.000000) scale(0.100000,-0.100000)"
fill="#000000" stroke="none">
<path d="M1359 7036 c-1 -6 -1 -14 0 -18 2 -14 2 -67 2 -208 0 -80 0 -154 0
-165 0 -95 0 -273 0 -285 0 -8 0 -64 0 -125 0 -60 0 -114 0 -120 0 -5 0 -64 0
-130 -1 -146 -1 -187 -2 -222 -1 -16 0 -57 0 -93 2 -112 2 -327 0 -387 -1 -16
0 -57 0 -93 2 -112 2 -327 0 -387 -1 -16 0 -57 0 -93 2 -112 2 -327 0 -387 -1
-16 0 -57 0 -93 1 -36 1 -96 1 -135 -1 -97 -2 -94 18 -94 9 0 49 0 87 0 39 0
79 0 90 -1 11 -1 25 -1 30 -1 19 0 140 0 173 0 63 1 132 1 160 0 15 -1 50 -1
77 0 28 0 57 1 65 0 62 -2 215 0 250 4 14 2 37 0 52 -4 15 -4 30 -4 33 1 3 4
20 5 37 1 18 -4 45 -6 61 -4 15 2 39 4 55 6 15 2 39 0 54 -4 15 -4 30 -4 33 1
3 4 20 4 39 0 19 -4 40 -4 46 0 7 4 26 4 41 0 16 -5 31 -5 34 0 3 4 20 4 39 0
19 -4 40 -4 46 0 7 4 26 4 41 0 16 -5 31 -5 34 0 3 4 20 5 37 1 18 -3 48 -5
66 -3 l34 3 -6 122 c-4 67 -9 178 -13 247 -9 174 -9 593 0 665 13 100 14 109
15 136 2 20 8 28 27 31 14 3 25 2 25 -1 0 -5 115 -5 130 0 3 1 10 0 15 -1 6
-1 46 -2 90 -2 44 0 85 1 90 2 6 1 12 2 15 1 3 -1 70 -3 150 -5 149 -4 315
-17 315 -26 0 -1 14 -4 30 -6 80 -12 273 -88 319 -125 6 -5 38 -30 71 -56 78
-61 217 -203 257 -262 17 -25 35 -48 38 -51 10 -7 120 -199 120 -208 0 -4 6
-18 13 -32 35 -68 73 -198 83 -280 3 -30 7 -64 9 -75 1 -11 3 -27 4 -36 0 -9
13 -20 29 -25 30 -8 145 -15 237 -13 33 0 69 0 80 -1 11 -1 27 -1 35 -1 8 0
46 1 83 1 46 0 66 4 61 11 -4 6 -8 23 -9 38 -2 14 -5 44 -9 66 -3 22 -8 56
-10 75 -11 89 -39 207 -71 306 -31 94 -103 262 -127 293 -10 13 -18 27 -18 32
0 18 -130 203 -195 278 -37 43 -160 167 -201 201 -38 33 -230 170 -237 170 -3
0 -28 13 -54 28 -58 34 -207 94 -288 117 -108 29 -115 30 -195 45 -124 22
-164 27 -255 35 -33 3 -80 8 -103 10 -39 5 -448 18 -479 16 -7 -1 -19 -1 -25
-2 -18 -1 -389 0 -413 1 -11 1 -27 1 -35 1 -8 0 -41 -1 -74 -1 l-58 0 4 -30
c3 -16 2 -30 -1 -30 -7 0 -4 -108 3 -127 3 -7 1 -15 -4 -18 -5 -3 -6 -15 -1
-28 5 -12 5 -34 0 -49 -4 -16 -4 -28 1 -28 4 0 5 -15 1 -32 -4 -18 -4 -48 0
-66 3 -18 3 -35 -2 -37 -4 -3 -4 -16 0 -28 5 -12 5 -34 0 -49 -4 -15 -4 -30 1
-33 5 -3 5 -18 1 -33 -5 -15 -5 -36 -1 -47 4 -11 4 -30 -1 -41 -4 -12 -5 -25
-2 -28 8 -8 9 -76 1 -76 -4 0 -3 -13 2 -30 5 -17 5 -32 0 -35 -5 -3 -6 -16 -1
-28 5 -12 5 -31 1 -42 -4 -11 -5 -24 -2 -30 7 -12 6 -91 -2 -104 -4 -5 -2 -12
2 -15 15 -9 2 -53 -16 -54 -10 -1 -35 -2 -57 -1 -22 0 -47 0 -55 0 -36 -3 -86
0 -102 5 -10 3 -18 1 -18 -4 0 -5 -19 -6 -42 -2 -24 3 -54 3 -68 0 -13 -3 -47
-3 -75 1 -27 3 -51 4 -52 0 -2 -3 -28 -4 -58 -3 -30 2 -53 8 -50 12 3 5 1 11
-4 14 -5 3 -6 21 -2 39 5 18 5 41 1 52 -4 11 -4 34 0 52 4 18 5 47 1 65 -4 18
-4 49 -1 69 4 19 4 44 0 54 -4 11 -4 34 0 52 4 18 5 47 1 65 -4 18 -4 49 -1
69 4 19 4 44 0 54 -4 11 -4 34 0 52 4 18 5 47 1 65 -4 18 -4 49 -1 69 4 19 4
44 0 54 -4 11 -4 34 1 52 4 18 4 48 0 66 -4 17 -4 48 -1 67 3 19 3 49 -1 67
-4 18 -5 34 -2 36 2 3 4 167 3 364 l0 360 212 -3 c117 -2 213 -4 213 -5 0 0
72 -2 160 -4 408 -8 773 -20 920 -31 50 -3 115 -8 145 -10 62 -3 143 -12 180
-19 14 -2 43 -7 65 -10 77 -11 101 -16 190 -40 83 -23 200 -64 285 -102 99
-43 302 -147 348 -178 30 -19 56 -35 58 -35 6 0 96 -63 179 -126 162 -122 339
-297 458 -453 23 -31 50 -64 59 -75 9 -10 24 -34 33 -52 9 -19 20 -34 24 -34
5 0 11 -8 15 -17 3 -10 24 -47 46 -83 49 -78 115 -202 112 -212 -1 -3 5 -12
13 -18 8 -7 15 -20 15 -29 0 -9 4 -21 9 -27 11 -11 103 -244 116 -294 1 -3 4
-12 8 -20 14 -35 37 -112 42 -142 3 -17 9 -36 13 -42 3 -6 7 -15 8 -21 1 -5
10 -39 19 -75 9 -36 18 -73 20 -82 2 -9 13 -50 23 -90 11 -40 23 -85 26 -100
5 -23 9 -26 34 -19 15 4 41 5 57 1 17 -3 51 -3 76 0 26 3 54 3 64 0 9 -3 40
-3 69 0 29 3 66 3 84 -1 17 -3 33 -4 36 -2 2 3 33 6 69 8 113 5 142 36 133
142 -7 70 -8 80 -19 123 -4 14 -9 36 -11 50 -11 66 -82 339 -118 450 -51 156
-102 279 -185 445 -65 131 -91 176 -170 296 -23 36 -43 70 -43 76 0 6 -3 13
-8 15 -4 2 -36 41 -71 88 -163 216 -335 398 -536 565 -33 28 -62 53 -65 56 -3
3 -36 27 -75 54 -38 27 -72 52 -75 55 -25 28 -303 192 -440 260 -148 73 -442
189 -478 190 -7 0 -20 4 -30 9 -17 10 -123 39 -170 47 -14 3 -33 9 -44 15 -10
5 -18 8 -18 5 0 -2 -19 1 -42 6 -68 15 -81 18 -123 23 -22 3 -56 7 -75 10
-144 20 -371 28 -1080 40 -184 3 -441 8 -570 11 -129 3 -241 5 -247 4 -7 0
-19 0 -25 -1 -7 0 -127 2 -265 4 -183 3 -253 1 -254 -7z"/>
<path d="M1493 3482 l-133 -3 -1 -52 c0 -29 0 -106 1 -172 0 -66 1 -124 1
-130 0 -5 0 -75 0 -155 0 -178 0 -167 0 -270 0 -47 0 -91 0 -97 -2 -30 -3 -72
-2 -133 2 -112 2 -327 0 -387 -1 -16 0 -57 0 -93 2 -112 2 -327 0 -387 -1 -16
-1 -57 0 -93 1 -57 2 -329 2 -355 0 -5 0 -64 0 -130 -1 -146 -1 -187 -2 -222
-1 -16 0 -57 0 -93 1 -36 1 -108 0 -161 -1 -53 1 -101 4 -106 7 -11 56 -11
977 2 695 9 1078 19 1215 31 33 3 69 4 80 4 11 -1 25 -1 30 -1 33 2 223 21
255 26 14 2 45 7 70 10 72 10 189 35 265 56 39 11 75 22 80 23 10 3 23 8 60
22 11 4 22 8 25 9 28 7 97 33 147 57 34 15 64 28 68 28 13 0 239 112 310 153
132 77 336 217 411 283 12 11 36 30 54 44 19 14 92 84 164 155 170 169 230
237 347 395 39 52 76 102 82 111 7 8 17 24 23 35 7 10 40 64 75 119 127 202
323 631 354 775 2 8 10 35 18 60 52 159 120 462 120 527 -1 100 -26 112 -238
112 -44 0 -91 1 -105 2 -14 0 -32 1 -40 0 -8 0 -63 0 -122 -1 l-106 0 -10 -32
c-6 -18 -29 -107 -52 -198 -23 -91 -45 -176 -50 -190 -5 -14 -23 -74 -41 -135
-34 -116 -101 -291 -140 -366 -13 -24 -23 -47 -24 -50 0 -5 -48 -91 -110 -197
-15 -26 -127 -186 -134 -192 -4 -3 -26 -30 -50 -60 -103 -132 -353 -387 -471
-481 -84 -67 -183 -131 -289 -187 -58 -31 -108 -57 -111 -57 -3 -1 -39 -17
-80 -37 -103 -49 -239 -105 -275 -114 -16 -4 -34 -10 -40 -14 -11 -8 -178 -49
-229 -56 -17 -2 -40 -6 -51 -8 -24 -5 -134 -17 -195 -21 -25 -2 -79 -6 -120
-9 -136 -11 -370 -18 -975 -31 -630 -14 -566 -15 -575 9 -4 11 -5 28 -1 36 4
8 6 26 5 40 -5 52 -5 78 -5 195 0 66 0 126 0 133 1 17 1 109 0 125 0 15 0 105
1 130 0 9 0 32 1 50 0 17 0 43 0 57 -1 14 -1 32 0 40 0 14 0 152 0 195 -1 11
0 36 0 55 1 19 1 44 1 55 -1 11 -1 43 -1 70 0 28 0 64 -1 80 -1 17 -2 36 -1
43 2 24 3 77 1 102 0 14 -1 72 -1 130 0 58 0 110 0 115 0 11 0 98 1 133 0 13
2 28 5 32 5 8 219 14 305 9 19 -1 42 -2 50 -1 8 0 49 0 90 1 41 0 92 1 113 1
28 1 38 -3 35 -12 -3 -7 -1 -25 3 -40 4 -16 5 -28 1 -28 -4 0 -6 -21 -4 -47 5
-100 5 -161 -1 -170 -3 -5 -2 -15 3 -22 4 -8 4 -26 0 -41 -4 -15 -4 -33 0 -40
4 -7 4 -25 0 -40 -4 -15 -4 -33 0 -40 4 -7 4 -25 0 -40 -4 -15 -4 -33 0 -40 4
-7 4 -25 0 -40 -4 -15 -4 -33 0 -40 4 -7 4 -25 0 -40 -4 -15 -4 -33 0 -40 4
-7 4 -25 0 -40 -4 -15 -4 -33 0 -40 4 -7 4 -25 0 -40 -4 -15 -4 -33 0 -40 4
-7 4 -25 0 -40 -4 -15 -4 -33 0 -40 4 -7 4 -26 0 -41 -5 -16 -5 -31 0 -34 4
-3 4 -21 0 -40 -11 -49 -1 -51 178 -43 28 2 52 1 52 -2 0 -3 21 -4 47 -2 27 2
55 3 63 3 103 -3 173 -1 177 3 3 3 14 1 24 -4 11 -6 20 -6 24 -1 3 5 18 6 33
2 15 -4 38 -6 52 -4 14 1 111 5 215 7 105 3 228 8 275 11 135 8 223 16 250 20
80 13 103 18 180 41 47 14 90 27 95 28 9 3 40 14 90 34 96 39 349 181 375 211
3 3 27 24 55 46 292 234 518 611 611 1018 2 9 7 27 10 40 3 12 7 29 8 37 1 8
5 24 9 35 12 40 16 115 7 139 -14 38 -46 49 -150 53 -122 5 -212 5 -217 -1 -3
-2 -18 0 -34 4 -16 5 -29 5 -29 1 0 -4 -16 -5 -35 -3 -24 3 -35 0 -36 -9 -3
-39 -9 -76 -19 -125 -6 -30 -13 -67 -16 -82 -4 -30 -9 -50 -16 -72 -3 -8 -13
-40 -22 -70 -23 -71 -92 -219 -113 -242 -9 -10 -13 -18 -9 -18 4 0 2 -6 -4
-12 -5 -7 -30 -41 -55 -75 -52 -73 -75 -100 -136 -162 -58 -59 -180 -157 -213
-173 -14 -6 -26 -15 -26 -20 0 -4 -4 -8 -10 -8 -5 0 -32 -13 -60 -30 -27 -16
-50 -27 -50 -24 0 4 -6 2 -12 -3 -18 -14 -95 -40 -151 -53 -119 -26 -194 -31
-569 -36 l-348 -4 -1 32 c0 18 -2 121 -4 228 -3 107 -7 330 -10 495 -8 430 -9
455 -22 463 -7 4 -29 6 -50 5 -37 -2 -78 -3 -118 -2 -22 0 -363 1 -380 1 -54
-1 -83 -2 -100 -1 -20 0 -200 1 -220 1 -5 -1 -26 -1 -45 -1 -19 -1 -43 -1 -52
0 -10 0 -47 0 -83 -1 -36 -1 -69 1 -74 5 -5 3 -12 1 -15 -4 -3 -5 -21 -6 -38
-2 -18 4 -46 5 -62 1 -16 -3 -59 -3 -95 0 -36 3 -126 4 -198 2z"/>
</g>
</svg>
